<svg data-v-fde0c5aa="" xmlns="http://www.w3.org/2000/svg" viewBox="0 0 300 300" class="iconAbove"><!----><defs data-v-fde0c5aa=""><!----></defs><rect data-v-fde0c5aa="" fill="#EAD8B1" x="0" y="0" width="300px" height="300px" class="logo-background-square"></rect><defs data-v-fde0c5aa=""><!----></defs><g data-v-fde0c5aa="" id="c049dd97-eddb-4c8a-a686-bce97b4cf5fe" fill="#3A6D8C" transform="matrix(5.360824742268041,0,0,5.360824742268041,15.657731945981684,167.30927809489143)"><path d="M5.67 11.89L2.59 3.63L1.34 3.63L0.81 13.43L2.03 13.43L2.31 7.84C2.32 7.52 2.34 7.14 2.34 6.78C2.34 6.41 2.32 6.05 2.32 5.74C2.52 6.38 2.83 7.25 3.01 7.73L5.11 13.43L6.22 13.43L8.33 7.74C8.48 7.32 8.82 6.38 9.03 5.74C9.02 6.10 9.00 6.58 9.00 7.03C9.00 7.32 9.02 7.60 9.03 7.84L9.31 13.43L10.51 13.43L10.00 3.63L8.74 3.63ZM14.63 3.63L11.52 13.43L12.85 13.43L13.62 10.86L17.29 10.86L18.10 13.43L19.43 13.43L16.18 3.63ZM15.08 6.09C15.20 5.66 15.30 5.19 15.41 4.77C15.53 5.19 15.62 5.64 15.76 6.08L16.95 9.81L13.94 9.81ZM21.43 5.80C21.43 4.97 22.01 4.51 23.20 4.51C23.98 4.51 24.64 4.63 25.31 4.82L25.31 3.78C24.75 3.63 24.15 3.49 23.09 3.49C21.11 3.49 20.20 4.40 20.20 5.81C20.20 6.94 20.83 7.64 22.50 8.85C23.94 9.87 24.35 10.37 24.35 11.06C24.35 12.04 23.69 12.52 22.46 12.52C21.46 12.52 20.55 12.32 20.06 12.19L20.06 13.26C20.44 13.36 21.36 13.57 22.48 13.57C24.44 13.57 25.58 12.70 25.58 11.00C25.58 9.79 24.88 9.09 23.41 8.01C21.80 6.82 21.43 6.50 21.43 5.80ZM29.33 3.63L26.22 13.43L27.55 13.43L28.32 10.86L31.99 10.86L32.80 13.43L34.13 13.43L30.88 3.63ZM29.78 6.09C29.90 5.66 30.00 5.19 30.11 4.77C30.23 5.19 30.32 5.64 30.46 6.08L31.65 9.81L28.64 9.81ZM37.95 13.43L37.95 9.95L41.08 3.63L39.69 3.63L37.32 8.74L34.96 3.63L33.57 3.63L36.69 9.95L36.69 13.43ZM44.51 3.63L41.40 13.43L42.73 13.43L43.50 10.86L47.17 10.86L47.98 13.43L49.31 13.43L46.06 3.63ZM44.95 6.09C45.08 5.66 45.18 5.19 45.29 4.77C45.40 5.19 45.50 5.64 45.64 6.08L46.83 9.81L43.82 9.81Z"></path></g><defs data-v-fde0c5aa=""><!----></defs><g data-v-fde0c5aa="" id="e3ecadc6-48db-49e0-8795-ffac7e999e06" stroke="none" fill="#3A6D8C" transform="matrix(1.270848365199429,0,0,1.270848365199429,86.58657289272742,50.38628007208966)"><path d="M77.758 7.521H21.459l-7.5 52.915h71.298L77.758 7.521zm-1.31 44.397a5.52 5.52 0 01-1.427 1.059 3.611 3.611 0 01-.556.253 4.02 4.02 0 01-.165.062c-3.729 1.243-15.63 1.683-24.693 1.683h-.002c-8.973 0-20.773-.431-24.561-1.645l-.148-.05-.182-.07a3.592 3.592 0 01-.516-.242 5.435 5.435 0 01-1.457-1.103h-.001c-.002 0-.025-.024-.049-.048a2.5 2.5 0 01-.139-.162l-.09-.113a3.819 3.819 0 01-.193-.313l-.023-.044a4.622 4.622 0 01-.145-.309c-.014-.033-.027-.07-.043-.107-.039-.104-.072-.189-.104-.281l-.053-.165c-.023-.085-.049-.169-.076-.258l-.045-.187c-.023-.085-.043-.18-.064-.273l-.041-.199a6.434 6.434 0 01-.055-.295l-.036-.211c-.018-.111-.033-.225-.049-.335l-.027-.208a10.814 10.814 0 01-.043-.406l-.02-.154c-.02-.199-.037-.396-.051-.604l-.002-.051a19.002 19.002 0 01-.035-.578l-.031-.916c-.004-.145-.008-.286-.008-.43l-.004-.707.07-2.564c.012-.264.027-.527.043-.797l.006-.088c.018-.268.031-.492.047-.722l.439-4.56.107-.864c.033-.283.072-.572.111-.862l.879-5.468.156-.82c.053-.271.105-.536.16-.8l.939-4.078.369-1.342c.061-.203.121-.41.184-.611l.059-.189.129-.406.279-.805c.037-.098.072-.199.109-.293l.088-.227a5.2 5.2 0 01.109-.274l.086-.212c.029-.072.061-.141.094-.211l.312-.654c.051-.102.104-.194.158-.289l.051-.093c.066-.11.135-.217.203-.317.023-.034.043-.064.066-.09l.041-.056c.029-.044.061-.087.09-.124l.061-.07a.788.788 0 01.076-.084c.045-.052.09-.098.135-.143.023-.022.051-.048.08-.072a6.406 6.406 0 011.453-1.082c.096-.061.25-.138.453-.225.168-.072.277-.112.277-.112 3.326-1.222 13.17-1.66 20.586-1.66 7.464 0 17.343.441 20.621 1.683.039.016.102.037.192.079.198.08.378.171.525.265.323.176.858.521 1.396 1.055 2.891 2.43 5.283 18.09 5.408 27.042.103 7.108-1.113 8.191-1.513 8.547zM22.242 73.68h54.734l7.909-10.63H14.332l7.91 10.63zm40.749-7.455h12.067v4.219H62.991v-4.219zM80.736 77.359H19.058L4.121 85.021v7.541h91.555v-7.541l-14.94-7.662zm2.242 9.41l-11.026-.008H16.82c-3.676-.241-7.352-.426-11.025-.718 3.674-.291 7.35-.477 11.025-.721h55.131l11.026-.004c3.675.237 7.351.421 11.025.725-3.674.302-7.35.487-11.024.726z"></path></g><!----></svg>